<?xml version="1.0" encoding="utf-8"?>
<!-- Generator: Adobe Illustrator 22.1.0, SVG Export Plug-In . SVG Version: 6.00 Build 0)  -->
<svg version="1.1" id="Layer_1" xmlns="http://www.w3.org/2000/svg" xmlns:xlink="http://www.w3.org/1999/xlink" x="0px" y="0px"
	 viewBox="0 0 500 500" style="enable-background:new 0 0 500 500;" xml:space="preserve">
<style type="text/css">
	.st0{fill:#BBD3F9;}
	.st1{fill:none;}
</style>
<title>rain</title>
<path class="st0" d="M441.3,100C433.2,43,385.2-0.7,327.2-0.7c-27.3,0-53.6,9.8-74.2,27.6c-13.1-5.1-27-7.7-41.1-7.7
	c-45.4,0-84.7,26.8-103.5,65.8C48,88.7,0,139.9,0,202.5c0,65,51.6,117.7,115.3,117.7h269.4c63.7,0,115.3-52.7,115.3-117.7
	C500.2,160.3,477.8,121.2,441.3,100z"/>
<line class="st1" x1="196.6" y1="372.2" x2="152.6" y2="491.8"/>
<path class="st0" d="M152.6,499.3c-0.9,0-1.7-0.2-2.6-0.5c-3.8-1.5-5.7-5.8-4.3-9.6l43.9-119.6c1.3-3.8,5.5-5.8,9.3-4.4
	c0,0,0.1,0,0.1,0c3.8,1.5,5.7,5.8,4.3,9.6l-43.9,119.6C158.4,497.3,155.7,499.3,152.6,499.3z"/>
<line class="st1" x1="255.1" y1="357.3" x2="216.3" y2="462.9"/>
<path class="st0" d="M216.3,470.4c-0.9,0-1.8-0.2-2.6-0.5c-3.8-1.5-5.7-5.8-4.3-9.6l38.8-105.6c1.3-3.8,5.5-5.8,9.3-4.4
	c0,0,0.1,0,0.1,0c3.8,1.5,5.7,5.8,4.3,9.6l-38.8,105.6C222.1,468.4,219.4,470.4,216.3,470.4z"/>
<line class="st1" x1="313.7" y1="372.2" x2="269.8" y2="491.8"/>
<path class="st0" d="M269.8,499.3c-0.9,0-1.7-0.2-2.6-0.5c-3.8-1.5-5.7-5.8-4.3-9.6l43.9-119.6c1.3-3.8,5.5-5.8,9.3-4.4
	c0,0,0.1,0,0.1,0.1c3.8,1.5,5.7,5.8,4.3,9.6l-43.9,119.6C275.6,497.3,272.8,499.3,269.8,499.3z"/>
</svg>
