<?xml version="1.0" encoding="utf-8"?>
<!-- Generator: Adobe Illustrator 22.1.0, SVG Export Plug-In . SVG Version: 6.00 Build 0)  -->
<svg version="1.1" id="Layer_1" xmlns="http://www.w3.org/2000/svg" xmlns:xlink="http://www.w3.org/1999/xlink" x="0px" y="0px"
	 viewBox="0 0 500 500" style="enable-background:new 0 0 500 500;" xml:space="preserve">
<style type="text/css">
	.st0{fill:#BBD3F9;}
</style>
<title>snow</title>
<path class="st0" d="M493.4,242h-38l29.1-29.2c2.1-2.6,1.7-6.4-0.9-8.5c-2.2-1.8-5.3-1.8-7.5,0L438.5,242h-24.2l21.1-21.2
	c2.1-2.6,1.7-6.4-0.9-8.5c-2.2-1.8-5.3-1.8-7.5,0l-29.5,29.6H265.6l94-94.4h41.7c3.3-0.4,5.7-3.3,5.3-6.6c-0.3-2.8-2.5-5-5.3-5.3
	h-29.8l17.1-17.2h53.1c3.3,0.4,6.2-2,6.6-5.3c0.4-3.3-2-6.3-5.3-6.6c-0.4,0-0.9,0-1.3,0h-41.1l26.9-27c2.6-2.1,3-5.9,0.9-8.5
	c-2.1-2.6-5.9-3-8.4-0.9c-0.3,0.3-0.6,0.6-0.9,0.9l-26.9,27V56.6c0.3-3.3-2.1-6.2-5.4-6.6s-6.2,2.1-6.6,5.4c0,0.4,0,0.8,0,1.2V110
	l-17,17V97.5c-0.3-3.3-3.3-5.7-6.6-5.4c-2.8,0.3-5.1,2.5-5.4,5.4V139l-94.8,95.3V101.7L286.1,72c2.1-2.6,1.7-6.4-0.8-8.5
	c-2.2-1.8-5.4-1.8-7.6,0l-21.1,21.2V60.4l37.5-37.7c2.6-2.1,3-5.9,0.9-8.4c-2.1-2.6-5.8-3-8.4-0.9c-0.3,0.3-0.6,0.6-0.9,0.9
	l-29.1,29.3V5.4c-0.4-3.3-3.3-5.7-6.6-5.3c-2.8,0.3-5,2.5-5.3,5.3v38.2l-29.1-29.3c-2.6-2.1-6.3-1.7-8.4,0.9c-1.8,2.2-1.8,5.4,0,7.6
	l37.5,37.7v24l-20.8-20.9c-2.6-2.1-6.3-1.7-8.4,0.9c-1.8,2.2-1.8,5.4,0,7.6l29.2,29.3v134l-95.8-96.2V97.2c0.4-3.3-2-6.3-5.3-6.6
	c-3.3-0.4-6.2,2-6.6,5.3c0,0.4,0,0.9,0,1.3v30L119.8,110V56.6c0.4-3.3-2-6.3-5.3-6.6c-3.3-0.4-6.2,2-6.6,5.3c0,0.4,0,0.9,0,1.3V98
	L80.9,71c-2.6-2.1-6.3-1.7-8.4,0.9c-1.8,2.2-1.8,5.4,0,7.6l26.9,27H58.3c-3.3-0.3-6.2,2.1-6.6,5.4c-0.3,3.3,2.1,6.2,5.4,6.6
	c0.4,0,0.8,0,1.2,0h53.1l17,17H98.9c-3.3,0.3-5.7,3.3-5.4,6.6c0.3,2.8,2.5,5.1,5.4,5.4h41.3l94.2,94.7h-132L73,212.4
	c-2.1-2.6-5.9-2.9-8.4-0.8c-2.6,2.1-2.9,5.9-0.8,8.5c0.2,0.3,0.5,0.6,0.8,0.8l21.1,21.2H61.4l-37.5-37.7c-2.6-2.1-6.3-1.7-8.4,0.9
	c-1.8,2.2-1.8,5.4,0,7.6L44.6,242h-38c-3.3-0.4-6.2,2-6.6,5.3s2,6.3,5.3,6.6c0.4,0,0.9,0,1.3,0h38l-29.1,29.2
	c-2.6,2.1-3,5.9-0.9,8.5c2.1,2.6,5.9,3,8.4,0.9c0.3-0.3,0.6-0.6,0.9-0.9L61.5,254h23.9l-20.8,20.9c-2.6,2.1-3,5.9-0.9,8.5
	c2.1,2.6,5.9,3,8.4,0.9c0.3-0.3,0.6-0.6,0.9-0.9l29.2-29.3h134l-96,96.4H99c-3.3-0.4-6.2,2-6.6,5.3c-0.4,3.3,2,6.3,5.3,6.6
	c0.4,0,0.9,0,1.3,0h29.4l-17,17h-53c-3.3-0.4-6.2,2-6.6,5.3c-0.4,3.3,2,6.3,5.3,6.6c0.4,0,0.9,0,1.3,0h41.2l-26.9,27
	c-2.1,2.6-1.7,6.4,0.9,8.5c2.2,1.8,5.3,1.8,7.5,0l26.9-27v41.4c-0.4,3.3,2,6.3,5.3,6.6c3.3,0.4,6.2-2,6.6-5.3c0-0.4,0-0.9,0-1.3
	v-53.3l17.1-17.2v29.9c0.3,3.3,3.3,5.7,6.6,5.4c2.8-0.3,5.1-2.5,5.4-5.4v-41.9l95.8-96.2v134.9l-29.2,29.3c-2.1,2.6-1.7,6.4,0.9,8.5
	c2.2,1.8,5.3,1.8,7.5,0l20.8-20.9v24L207.1,476c-2.1,2.6-1.7,6.4,0.9,8.5c2.2,1.8,5.3,1.8,7.5,0l29.1-29.2v38.1
	c-0.4,3.3,2,6.3,5.3,6.6c3.3,0.4,6.2-2,6.6-5.3c0-0.4,0-0.9,0-1.3v-38.2l29.1,29.2c2.1,2.6,5.8,3,8.4,0.9c2.6-2.1,3-5.9,0.9-8.4
	c-0.3-0.3-0.6-0.7-0.9-0.9l-37.5-37.7v-24.3l21.1,21.2c2.6,2.1,6.3,1.7,8.4-0.9c1.8-2.2,1.8-5.4,0-7.6l-29.5-29.6V263.7l94.8,95.2
	v41.5c-0.4,3.3,2,6.3,5.3,6.6s6.2-2,6.6-5.3c0-0.4,0-0.9,0-1.3v-29.5l17,17v53.3c-0.4,3.3,2,6.3,5.3,6.6s6.2-2,6.6-5.3
	c0-0.4,0-0.9,0-1.3v-41.4l26.9,27c2.6,2.1,6.3,1.7,8.4-0.9c1.8-2.2,1.8-5.4,0-7.6l-26.9-27h41.2c3.3,0.4,6.2-2,6.6-5.3
	c0.4-3.3-2-6.3-5.3-6.6c-0.4,0-0.9,0-1.3,0h-53.1l-17.1-17.2h29.8c3.3-0.3,5.7-3.3,5.4-6.6c-0.3-2.8-2.5-5.1-5.4-5.4h-41.7
	L263.8,254h134l29.2,29.3c2.6,2.1,6.3,1.7,8.4-0.9c1.8-2.2,1.8-5.4,0-7.6L414.6,254h23.9l37.5,37.7c2.6,2.1,6.3,1.7,8.4-0.9
	c1.8-2.2,1.8-5.4,0-7.6L455.4,254h38c3.3,0.4,6.2-2,6.6-5.3c0.4-3.3-2-6.3-5.3-6.6C494.2,242,493.8,242,493.4,242z"/>
</svg>
