<?xml version="1.0" encoding="utf-8"?>
<!-- Generator: Adobe Illustrator 22.1.0, SVG Export Plug-In . SVG Version: 6.00 Build 0)  -->
<svg version="1.1" id="Layer_1" xmlns="http://www.w3.org/2000/svg" xmlns:xlink="http://www.w3.org/1999/xlink" x="0px" y="0px"
	 viewBox="0 0 500 500" style="enable-background:new 0 0 500 500;" xml:space="preserve">
<style type="text/css">
	.st0{fill:#BBD3F9;}
	.st1{fill:#FCC335;}
	.st2{fill:none;}
</style>
<title>storm</title>
<path class="st0" d="M441.3,100.7C433.2,43.8,385.2,0,327.2,0C300,0,273.6,9.8,253,27.6c-13.1-5.1-27-7.7-41.1-7.7
	c-45.4,0-84.7,26.8-103.5,65.8C48,89.4,0,140.6,0,203.2c0,65,51.6,117.7,115.3,117.7h269.4c63.7,0,115.3-52.7,115.3-117.7
	C500.2,161,477.8,121.9,441.3,100.7z"/>
<polygon class="st1" points="118,230.6 262.4,230.6 160.7,335 211.8,335 52.1,500 102.2,335 60.5,334.4 "/>
<line class="st2" x1="233.1" y1="373" x2="189.2" y2="492.5"/>
<path class="st0" d="M189.2,500c-0.9,0-1.8-0.2-2.6-0.5c-3.8-1.5-5.7-5.8-4.3-9.6l43.9-119.6c1.3-3.8,5.5-5.8,9.3-4.4
	c0,0,0.1,0,0.1,0.1c3.8,1.5,5.7,5.8,4.3,9.6l-43.9,119.6C195,498,192.3,500,189.2,500z"/>
<line class="st2" x1="291.7" y1="358" x2="252.9" y2="463.7"/>
<path class="st0" d="M252.9,471.1c-0.9,0-1.7-0.2-2.6-0.5c-3.8-1.5-5.7-5.8-4.3-9.6l38.8-105.6c1.3-3.8,5.5-5.8,9.3-4.4
	c0,0,0.1,0,0.1,0c3.8,1.5,5.7,5.8,4.3,9.6l-38.8,105.6C258.7,469.2,256,471.1,252.9,471.1z"/>
<line class="st2" x1="350.3" y1="373" x2="306.4" y2="492.5"/>
<path class="st0" d="M306.4,500c-0.9,0-1.8-0.2-2.6-0.5c-3.8-1.5-5.7-5.8-4.3-9.6l43.9-119.6c1.3-3.8,5.5-5.8,9.3-4.4
	c0,0,0.1,0,0.1,0c3.8,1.5,5.7,5.8,4.3,9.6l-43.9,119.6C312.2,498,309.4,500,306.4,500z"/>
</svg>
