<?xml version="1.0" encoding="utf-8"?>
<!-- Generator: Adobe Illustrator 22.1.0, SVG Export Plug-In . SVG Version: 6.00 Build 0)  -->
<svg version="1.1" id="Layer_1" xmlns="http://www.w3.org/2000/svg" xmlns:xlink="http://www.w3.org/1999/xlink" x="0px" y="0px"
	 viewBox="0 0 500 500" style="enable-background:new 0 0 500 500;" xml:space="preserve">
<style type="text/css">
	.st0{fill:#BBD3F9;}
</style>
<title>sunny</title>
<g>
	<ellipse class="st0" cx="250" cy="255.3" rx="85" ry="84.4"/>
	<path class="st0" d="M250,1.9L250,1.9c3.9,0,7,3.1,7,6.9v125c0,3.8-3.1,6.9-7,6.9l0,0c-3.9,0-7-3.1-7-6.9V8.9
		C243,5,246.1,1.9,250,1.9z"/>
	<circle class="st0" cx="250" cy="498.1" r="0"/>
	<path class="st0" d="M327.8,163l89.1-88.4c2.7-2.7,7.2-2.7,9.9,0l0,0c2.7,2.7,2.7,7.1,0,9.8l-89.1,88.4c-2.7,2.7-7.2,2.7-9.9,0l0,0
		C325.1,170.1,325.1,165.7,327.8,163z"/>
	<circle class="st0" cx="73.2" cy="425.4" r="0"/>
	<path class="st0" d="M367,243.1h126c3.9,0,7,3.1,7,6.9v0c0,3.8-3.1,6.9-7,6.9H367c-3.9,0-7-3.1-7-6.9v0
		C360,246.2,363.2,243.1,367,243.1z"/>
	<circle class="st0" cx="0" cy="250" r="0"/>
	<path class="st0" d="M327.8,327.2L327.8,327.2c2.7-2.7,7.2-2.7,9.9,0l89.1,88.4c2.7,2.7,2.7,7.1,0,9.8l0,0c-2.7,2.7-7.2,2.7-9.9,0
		L327.8,337C325.1,334.3,325.1,329.9,327.8,327.2z"/>
	<circle class="st0" cx="73.2" cy="74.6" r="0"/>
	<path class="st0" d="M250,359.2L250,359.2c3.9,0,7,3.1,7,7v125c0,3.8-3.1,7-7,7l0,0c-3.9,0-7-3.1-7-7v-125
		C243,362.3,246.1,359.2,250,359.2z"/>
	<circle class="st0" cx="250" cy="1.9" r="0"/>
	<path class="st0" d="M73.2,415.6l89.1-88.4c2.7-2.7,7.2-2.7,9.9,0l0,0c2.7,2.7,2.7,7.1,0,9.8l-89.1,88.4c-2.7,2.7-7.2,2.7-9.9,0
		l0,0C70.5,422.7,70.5,418.3,73.2,415.6z"/>
	<circle class="st0" cx="426.8" cy="74.6" r="0"/>
	<path class="st0" d="M7,243.1h126c3.9,0,7,3.1,7,6.9v0c0,3.8-3.1,6.9-7,6.9H7c-3.9,0-7-3.1-7-6.9v0C0,246.2,3.1,243.1,7,243.1z"/>
	<circle class="st0" cx="500" cy="250" r="0"/>
	<path class="st0" d="M73.2,74.6L73.2,74.6c2.7-2.7,7.2-2.7,9.9,0l89.1,88.4c2.7,2.7,2.7,7.1,0,9.8l0,0c-2.7,2.7-7.2,2.7-9.9,0
		L73.2,84.4C70.5,81.7,70.5,77.3,73.2,74.6z"/>
	<circle class="st0" cx="426.8" cy="425.4" r="0"/>
	<path class="st0" d="M250,1.9L250,1.9c3.9,0,7,3.1,7,6.9v125c0,3.8-3.1,6.9-7,6.9l0,0c-3.9,0-7-3.1-7-6.9V8.9
		C243,5,246.1,1.9,250,1.9z"/>
	<circle class="st0" cx="250" cy="498.1" r="0"/>
</g>
</svg>
